<?xml version="1.0" encoding="UTF-8" standalone="no"?>
<svg
   viewBox="0 0 35.680007 40.752858"
   version="1.1"
   id="svg86"
   sodipodi:docname="uniyamanashi.svg"
   width="35.680008"
   height="40.752857"
   inkscape:version="1.2.2 (b0a8486541, 2022-12-01)"
   xmlns:inkscape="http://www.inkscape.org/namespaces/inkscape"
   xmlns:sodipodi="http://sodipodi.sourceforge.net/DTD/sodipodi-0.dtd"
   xmlns="http://www.w3.org/2000/svg"
   xmlns:svg="http://www.w3.org/2000/svg">
  <sodipodi:namedview
     id="namedview88"
     pagecolor="#ffffff"
     bordercolor="#000000"
     borderopacity="0.25"
     inkscape:showpageshadow="2"
     inkscape:pageopacity="0.0"
     inkscape:pagecheckerboard="0"
     inkscape:deskcolor="#d1d1d1"
     showgrid="false"
     inkscape:zoom="2.580247"
     inkscape:cx="25.191387"
     inkscape:cy="33.717702"
     inkscape:window-width="1920"
     inkscape:window-height="1063"
     inkscape:window-x="0"
     inkscape:window-y="17"
     inkscape:window-maximized="1"
     inkscape:current-layer="g82" />
  <defs
     id="defs4">
    <style
       id="style2">
      .cls-1 {
        fill: #007bc1;
      }

      .cls-2 {
        fill: #5f2380;
      }
    </style>
  </defs>
  <g
     id="Layer_2"
     data-name="Layer 2"
     transform="translate(0,-0.07)">
    <g
       id="レイアウト">
      <g
         id="g82">
        <path
           class="cls-2"
           d="m 29.68,0.14 a 5.95,5.95 0 1 0 6,5.94 5.94,5.94 0 0 0 -6,-5.94"
           id="path8" />
        <path
           class="cls-2"
           d="M 22,22.29 A 6,6 0 0 0 17.89,12 v 0 A 5.94,5.94 0 0 1 12,6.07 a 6,6 0 1 0 -6,6 v 0 a 5.94,5.94 0 0 1 5.9,5.93 5.94,5.94 0 0 0 1.73,4.2 v 0 a 5.92,5.92 0 0 1 0.1,8.28 6,6 0 1 0 8.28,0 5.88,5.88 0 0 1 0,-8.16"
           id="path10" />
      </g>
    </g>
  </g>
</svg>
